<?xml version="1.0" encoding="UTF-8"?>
<svg width="27px" height="22px" viewBox="0 0 27 22" version="1.1" xmlns="http://www.w3.org/2000/svg" xmlns:xlink="http://www.w3.org/1999/xlink">
    <!-- Generator: Sketch 41.2 (35397) - http://www.bohemiancoding.com/sketch -->
    <title>Twitter-color</title>
    <desc>Created with Sketch.</desc>
    <defs/>
    <g id="Page-1" stroke="none" stroke-width="1" fill="none" fill-rule="evenodd">
        <g id="Desktop-HD-Copy" transform="translate(-315.000000, -177.000000)" fill="#D7D7D7">
            <g id="First-fold">
                <g id="Menu" transform="translate(241.000000, 122.000000)">
                    <g id="Logo">
                        <g id="Twitter-color" transform="translate(74.000000, 55.000000)">
                            <g id="Icons">
                                <g>
                                    <g id="Color-">
                                        <path d="M27,2.60440565 C26.0079238,3.0461541 24.9397779,3.3448899 23.8193342,3.47836775 C24.9635497,2.79191055 25.8415211,1.70343085 26.2551504,0.40678935 C25.1838354,1.04239795 24.0000002,1.5048033 22.735341,1.7526905 C21.7274169,0.67374505 20.286846,0 18.6925517,0 C15.6354992,0 13.155309,2.4868184 13.155309,5.5536294 C13.155309,5.9890215 13.2028526,6.4117009 13.2979399,6.81849025 C8.69413612,6.5864931 4.61331225,4.3777536 1.87955606,1.01379575 C1.40253581,1.8369087 1.12995225,2.79191055 1.12995225,3.8088842 C1.12995225,5.73477795 2.10776569,7.4350309 3.59429456,8.4313471 C2.68779712,8.40433385 1.83201244,8.15167925 1.08399375,7.73853355 L1.08399375,7.8068617 C1.08399375,10.498664 2.993661,12.743951 5.52931875,13.2524375 C5.06497613,13.3827375 4.57527712,13.4478872 4.06973081,13.4478872 C3.71315362,13.4478872 3.36450094,13.4145181 3.02694131,13.3493679 C3.73217119,15.5549295 5.77654537,17.16143 8.201268,17.2043339 C6.3058635,18.6948355 3.91600631,19.5830987 1.32171131,19.5830987 C0.874801688,19.5830987 0.432646313,19.5576744 0,19.5068258 C2.45166413,21.0799567 5.36450063,22 8.49128344,22 C18.6814581,22 24.2519811,13.5384618 24.2519811,6.19877225 C24.2519811,5.95724085 24.2472268,5.71570945 24.2377177,5.47894545 C25.3201269,4.6955579 26.2599047,3.71830965 27,2.60440565" id="Twitter"/>
                                    </g>
                                </g>
                            </g>
                        </g>
                    </g>
                </g>
            </g>
        </g>
    </g>
</svg>